<?xml version="1.0" encoding="utf-8"?>

<!DOCTYPE svg PUBLIC "-//W3C//DTD SVG 1.1//EN" "http://www.w3.org/Graphics/SVG/1.1/DTD/svg11.dtd">
<!-- Uploaded to: SVG Repo, www.svgrepo.com, Generator: SVG Repo Mixer Tools -->
<svg height="800px" width="800px" version="1.1" id="_x32_" xmlns="http://www.w3.org/2000/svg" xmlns:xlink="http://www.w3.org/1999/xlink" 
	 viewBox="0 0 512 512"  xml:space="preserve">
<style type="text/css">
	.st0{fill:#000000;}
</style>
<g>
	<path class="st0" d="M224.087,0c-13.363,0-24.184,10.827-24.184,24.189c0,0.008,0,1.605,0,4.452c0,13.978,0,57.978,0,88.166
		c0,11.51-9.338,20.849-20.855,20.849c-11.518,0-20.85-9.339-20.85-20.849c0-36.346,0-90.948,0-90.948
		c0-13.355-10.834-24.19-24.197-24.19c-13.362,0-24.192,10.834-24.192,24.19c0,0.007,0,1.612,0,4.444c0,13.733,0,56.388,0,86.504
		c0,11.51-9.332,20.849-20.854,20.849c-11.514,0-20.85-9.339-20.85-20.849c0-36.317,0-92.618,0-92.618
		C68.106,10.827,57.276,0,43.919,0C30.56,0,19.726,10.827,19.726,24.189c0,0.008,0,1.605,0,4.452c0,19.876,0,100.359,0,115.69
		c0.008,2.534,0.213,4.887,0.555,7.211c0.654,4.343,1.762,8.62,3.297,13.064c2.693,7.719,6.709,15.89,12.32,24.139
		c4.209,6.172,9.316,12.352,15.445,18.206c9.182,8.758,20.709,16.753,34.6,22.49c4.615,1.91,9.506,3.529,14.615,4.887v264.166
		c0,7.465,6.049,13.507,13.514,13.507h19.93h19.933c7.467,0,13.516-6.042,13.516-13.507V234.349
		c6.39-1.699,12.426-3.848,18.045-6.398c10.967-4.96,20.377-11.328,28.228-18.307c11.793-10.494,20.108-22.229,25.692-33.281
		c2.789-5.548,4.902-10.936,6.398-16.158c0.756-2.606,1.352-5.184,1.771-7.792c0.422-2.608,0.69-5.236,0.69-8.082
		c0-17.516,0-120.142,0-120.142C248.274,10.827,237.44,0,224.087,0z"/>
	<path class="st0" d="M481.489,4.028c-6.168-4.111-13.828-5.106-20.805-2.842c-0.644,0.2-1.285,0.4-1.914,0.661l-64.086,26.832
		c-7.713,3.221-13.205,10.198-14.541,18.444l-16.545,194.122c-1.113,6.918,0.824,13.992,5.322,19.358
		c4.498,5.382,54.971,49.552,54.971,49.552v188.03c0,7.63,6.191,13.814,13.812,13.814h22.98h17.77c7.631,0,13.82-6.183,13.82-13.814
		V241.852V228.21v-5.456V211.76V24.144C492.274,16.053,488.224,8.504,481.489,4.028z"/>
</g>
</svg>