<?xml version="1.0" encoding="utf-8"?>

<!DOCTYPE svg PUBLIC "-//W3C//DTD SVG 1.1//EN" "http://www.w3.org/Graphics/SVG/1.1/DTD/svg11.dtd">
<!-- Uploaded to: SVG Repo, www.svgrepo.com, Generator: SVG Repo Mixer Tools -->
<svg height="800px" width="800px" version="1.1" id="_x32_" xmlns="http://www.w3.org/2000/svg" xmlns:xlink="http://www.w3.org/1999/xlink" 
	 viewBox="0 0 512 512"  xml:space="preserve">
<style type="text/css">
	.st0{fill:#000000;}
</style>
<g>
	<path class="st0" d="M491.263,115.548c-19.916-31.088-52.297-55.678-92.605-72.662c-40.363-16.974-88.906-26.395-142.289-26.404
		l-0.592,0.009l0,0c0,0,0,0-0.01,0l-0.574,0.008v0.009c-71.031,0.219-133.478,16.956-179.398,46.158
		C52.798,77.335,33.92,95.229,20.673,115.985C7.426,136.703-0.028,160.393,0,185.411v0.42h0.008
		c0.046,15.452,1.248,25.848,3.208,33.72c0.984,3.945,2.205,7.27,3.48,9.995c1.248,2.669,2.561,4.738,3.208,5.749l0.01,0.018
		c1.093,1.704,1.94,2.633,2.724,3.48c1.448,1.531,2.724,2.625,4.136,3.791c4.692,3.817,10.97,8.063,17.548,12.254
		c-3.708,7.27-5.485,17.913-5.531,31.734c-0.81-0.082-1.576-0.191-2.451-0.2c-3.353-0.027-7.37,0.757-11.016,2.788
		c-2.724,1.504-5.093,3.636-6.833,5.905c-2.624,3.444-3.936,6.988-4.719,10.277c-0.619,2.679-0.838,5.294-0.929,7.936
		c-0.074,0.547-0.118,0.994-0.173,1.485c-0.283,3.08-0.438,7.208-0.61,12.555c-0.483,15.863-0.757,39.952-0.757,43.67v0.473h0.019
		c0.054,9.986,2.268,19.716,6.268,28.691c7.098,15.954,19.353,29.494,34.86,41.083c23.333,17.347,54.384,30.64,90.71,39.925
		c36.326,9.248,77.955,14.349,122.253,14.358h0.328v-0.009l0.21,0.009h0.218c67.678-0.136,129.032-11.981,174.997-32.599
		c22.988-10.36,42.23-22.924,56.399-38.212c7.061-7.645,12.837-16.017,16.874-25.146c4.036-9.102,6.268-18.979,6.258-29.102
		c0-1.312-0.045-4.975-0.118-10.168c-0.118-7.745-0.319-18.55-0.583-27.88c-0.128-4.674-0.273-8.965-0.438-12.41
		c-0.082-1.731-0.164-3.243-0.264-4.592l-0.191-1.986c-0.028-0.228-0.064-0.473-0.092-0.71c-0.073-2.315-0.256-4.602-0.711-6.924
		c-0.884-4.282-2.615-9.194-6.888-13.549c-2.114-2.123-4.828-3.908-7.671-4.992c-2.843-1.094-5.713-1.504-8.246-1.504
		c-0.82,0.009-1.531,0.118-2.287,0.183c-0.092-13.539-1.832-24.026-5.412-31.27c3.7-2.233,7.38-4.52,10.742-6.724
		c2.944-1.931,5.595-3.772,7.945-5.558c1.176-0.893,2.278-1.776,3.426-2.824c1.176-1.158,2.351-2.032,4.292-5.066
		c1.012-1.658,2.259-4.072,3.243-6.833c2.952-8.437,4.501-19.58,4.556-42.221v-0.483v-0.054
		C511.991,159.891,504.52,136.229,491.263,115.548z M48.99,134.043c15.143-23.817,41.766-44.954,77.399-59.988
		c35.588-15.042,79.941-23.926,129.424-23.98h0.319h0.055h0.182c65.892-0.046,122.662,15.708,161.768,40.635
		c19.57,12.446,34.704,27.079,44.826,42.932c10.123,15.889,15.398,32.891,15.453,51.296v0.492c0.01,13.913-0.765,22.24-1.567,26.722
		c-0.328,1.85-0.629,2.907-0.847,3.6c-0.929,0.702-2.25,1.658-3.772,2.678c-4.128,2.816-9.785,6.342-15.088,9.466
		c-5.275,3.116-10.423,5.932-12.983,7.152c-19.024,9.13-47.842,19.58-80.907,27.57c-33.073,8.018-70.492,13.631-107.083,13.667
		c-0.41,0-0.692,0-0.692,0c-36.518,0-73.828-5.531-106.81-13.448c-32.955-7.9-61.682-18.231-80.678-27.279
		c-1.722-0.82-4.856-2.514-8.273-4.537c-5.167-3.043-11.207-6.898-15.899-10.168c-2.332-1.622-4.355-3.116-5.622-4.146l-0.61-0.519
		c-0.173-0.292-0.31-0.566-0.483-0.912c-0.482-1.057-1.302-3.08-2.086-7.717c-0.774-4.601-1.412-11.654-1.43-22.022v-0.073v-0.055
		C33.611,166.989,38.878,149.969,48.99,134.043z M473.715,385.984c-3.982,9.084-12.018,18.75-24.282,27.898
		c-18.331,13.767-45.793,26.031-79.094,34.532c-33.255,8.537-72.315,13.448-114.053,13.521l-0.875-0.01
		c-63.532,0.046-120.923-11.352-160.911-29.32c-19.999-8.929-35.534-19.498-45.401-30.204c-4.957-5.348-8.519-10.687-10.815-15.862
		c-2.286-5.202-3.38-10.213-3.399-15.461v-0.073v-0.018c0-2.078,0.137-15.17,0.392-27.899c0.109-5.667,0.237-11.243,0.392-15.862
		c17.502,12.783,33.757,21.803,56.699,29.821c47.387,16.719,102.728,28.955,163.089,28.964h0.537h0.028
		c60.571-0.1,116.076-12.51,163.554-29.402c22.951-8.09,39.178-17.146,56.644-29.994c0.529,15.152,0.902,41.346,0.893,43.843
		C477.105,375.725,476.011,380.763,473.715,385.984z"/>
	<path class="st0" d="M9.94,235.358c-0.009-0.018-0.027-0.054-0.036-0.063l-0.182-0.283L9.94,235.358z"/>
	<path class="st0" d="M114.518,166.935c6.368-0.01,11.525-4.665,11.516-10.396c-0.009-5.731-5.175-10.368-11.544-10.359
		c-6.378,0.008-11.535,4.665-11.535,10.395C102.974,162.306,108.14,166.943,114.518,166.935z"/>
	<path class="st0" d="M255.968,131.365c-6.378,0.008-11.534,4.673-11.525,10.404c0.008,5.74,5.175,10.378,11.544,10.368
		c6.378-0.009,11.534-4.665,11.534-10.404C267.502,136.001,262.346,131.355,255.968,131.365z"/>
	<path class="st0" d="M256.059,198.532c-6.378,0.009-11.534,4.674-11.526,10.404c0.01,5.741,5.175,10.378,11.544,10.368
		c6.378-0.008,11.535-4.665,11.535-10.405C267.594,203.169,262.437,198.522,256.059,198.532z"/>
	<path class="st0" d="M164.985,121.943c6.378,0,11.534-4.665,11.534-10.405c-0.019-5.731-5.185-10.387-11.562-10.369
		c-6.369,0-11.525,4.665-11.525,10.396C153.449,117.305,158.615,121.962,164.985,121.943z"/>
	<path class="st0" d="M255.932,104.696c6.378-0.009,11.534-4.674,11.517-10.414c0-5.731-5.176-10.378-11.553-10.369
		c-6.368,0.009-11.525,4.674-11.517,10.405C244.388,100.059,249.554,104.705,255.932,104.696z"/>
	<path class="st0" d="M191.661,170.943c6.37-0.018,11.517-4.674,11.517-10.406c-0.009-5.74-5.175-10.387-11.553-10.368
		c-6.378,0-11.534,4.656-11.516,10.395C180.109,166.296,185.284,170.943,191.661,170.943z"/>
	<path class="st0" d="M397.509,166.551c6.378-0.008,11.535-4.665,11.526-10.386c-0.01-5.74-5.175-10.378-11.553-10.369
		c-6.378,0.01-11.526,4.665-11.517,10.396C385.975,161.923,391.132,166.56,397.509,166.551z"/>
	<path class="st0" d="M346.916,121.706c6.369-0.009,11.525-4.674,11.516-10.414c-0.008-5.732-5.175-10.378-11.544-10.378
		c-6.378,0.018-11.544,4.674-11.525,10.404C335.363,117.06,340.538,121.706,346.916,121.706z"/>
	<path class="st0" d="M320.384,170.761c6.378,0,11.526-4.665,11.517-10.395c0-5.741-5.175-10.378-11.553-10.378
		c-6.368,0.018-11.525,4.665-11.517,10.405C308.83,166.123,314.006,170.779,320.384,170.761z"/>
</g>
</svg>